<svg width="20" height="20" viewBox="0 0 20 20" fill="none" xmlns="http://www.w3.org/2000/svg">
<path d="M13.3333 4.16667C13.7936 4.16667 14.1667 3.79357 14.1667 3.33333C14.1667 2.8731 13.7936 2.5 13.3333 2.5C12.8731 2.5 12.5 2.8731 12.5 3.33333C12.5 3.79357 12.8731 4.16667 13.3333 4.16667Z" stroke="#E60076" stroke-width="1.66667" stroke-linecap="round" stroke-linejoin="round"/>
<path d="M15 15.8333L15.8334 10L10.8334 10.8333" stroke="#E60076" stroke-width="1.66667" stroke-linecap="round" stroke-linejoin="round"/>
<path d="M4.16663 6.66663L6.66663 4.16663L11.25 6.66663L9.28329 9.58329" stroke="#E60076" stroke-width="1.66667" stroke-linecap="round" stroke-linejoin="round"/>
<path d="M3.53333 12.0834C3.29819 12.8526 3.29073 13.6734 3.51184 14.4468C3.73295 15.2202 4.17318 15.913 4.77939 16.4417C5.3856 16.9703 6.13187 17.3122 6.92813 17.4261C7.72438 17.54 8.53657 17.4209 9.26666 17.0834" stroke="#E60076" stroke-width="1.66667" stroke-linecap="round" stroke-linejoin="round"/>
<path d="M11.4666 14.5833C11.7017 13.8141 11.7092 12.9933 11.4881 12.2199C11.267 11.4465 10.8268 10.7537 10.2205 10.225C9.61434 9.69635 8.86806 9.35444 8.07181 9.24057C7.27556 9.12671 6.46337 9.24574 5.73328 9.58331" stroke="#E60076" stroke-width="1.66667" stroke-linecap="round" stroke-linejoin="round"/>
</svg>
