<?xml version="1.0" standalone="no"?>
<!DOCTYPE svg PUBLIC "-//W3C//DTD SVG 20010904//EN"
 "http://www.w3.org/TR/2001/REC-SVG-20010904/DTD/svg10.dtd">
<svg version="1.0" xmlns="http://www.w3.org/2000/svg"
 width="150.000000pt" height="150.000000pt" viewBox="0 0 150.000000 150.000000"
 preserveAspectRatio="xMidYMid meet">

<g transform="translate(0.000000,150.000000) scale(0.100000,-0.100000)"
fill="#f6339a" stroke="none">
<path d="M783 1314 c-57 -21 -139 -96 -169 -155 -13 -27 -27 -75 -30 -108 l-7
-59 -48 -5 c-66 -8 -146 -44 -169 -77 -43 -60 -19 -109 89 -180 l44 -29 -27
-11 c-38 -14 -76 -13 -126 5 -70 25 -77 22 -96 -42 -47 -160 59 -356 243 -449
72 -37 81 -39 167 -39 110 0 166 23 237 97 117 122 153 323 73 417 -29 34 -30
41 -6 41 38 0 119 49 163 98 42 47 79 127 79 171 0 10 20 32 45 50 25 18 45
38 45 46 0 7 -26 26 -59 42 -40 19 -64 38 -77 61 -22 41 -71 85 -127 114 -55
28 -183 35 -244 12z m218 -97 c101 -68 114 -208 30 -324 -33 -46 -117 -93
-166 -93 -50 0 -117 40 -142 85 -25 44 -31 142 -12 192 48 130 198 202 290
140z m-391 -320 c0 -23 57 -94 97 -121 l38 -26 -36 0 c-46 0 -143 26 -174 46
-24 16 -32 48 -17 70 9 14 63 43 80 44 6 0 12 -6 12 -13z m147 -268 c74 -28
113 -104 93 -181 -46 -174 -262 -237 -387 -112 -56 56 -64 98 -31 162 51 100
224 170 325 131z"/>
<path d="M940 1110 c-22 -22 -27 -69 -8 -88 33 -33 88 4 88 58 0 50 -44 66
-80 30z"/>
</g>
</svg>
