<svg width="161" height="40" viewBox="0 0 161 40" fill="none" xmlns="http://www.w3.org/2000/svg">
<path d="M17.4968 7.42591C17.5003 6.28515 16.7578 5.35813 15.8385 5.35534C14.9192 5.35256 14.1712 6.27507 14.1677 7.41583C14.1642 8.55659 14.9066 9.48361 15.8259 9.4864C16.7452 9.48918 17.4933 8.56667 17.4968 7.42591Z" fill="url(#paint0_linear_12_2670)"/>
<path d="M25.6184 26.9545C25.4697 23.8273 23.6297 18.767 19.4941 18.3995C22.3599 16.6511 24.2742 13.5351 24.2856 9.97503C24.2894 8.56629 23.9939 7.22659 23.46 6.01004C24.2265 4.74871 25.2866 2.8735 25.0407 2.53204C24.6937 2.04692 21.0614 2.18126 20.5161 2.20552C18.7867 0.834095 16.5883 0.00751098 14.1916 4.74703e-05C8.59922 -0.0167454 4.05365 4.42404 4.03649 9.91719C4.03077 11.7849 4.5513 13.5333 5.45698 15.0297C4.34156 15.6566 0.00954354 18.2875 1.00552e-05 21.2617C-0.00571004 23.206 2.42914 24.6614 7.06433 24.6744C3.97738 28.7626 0.204027 26.1111 0.1964 28.0069C0.165893 37.7561 14.817 42.5477 21.8641 36.644C24.6441 34.3173 25.7824 30.4437 25.6184 26.9545ZM14.1839 2.67758C17.5683 2.68691 20.3025 5.95033 20.2892 9.96384C20.2758 13.9773 17.5226 17.224 14.1382 17.2146C10.7538 17.2053 8.01958 13.9419 8.03293 9.92838C8.04437 5.91301 10.7995 2.66825 14.1839 2.67758ZM5.28919 19.8978C5.26631 19.2298 6.22156 17.877 7.24546 17.2072C9.01488 18.8342 11.3773 19.8437 13.9818 19.8884C10.6928 21.133 5.38262 22.7507 5.28919 19.8978ZM19.4655 33.5411C18.1136 34.9311 16.3595 35.8865 14.4928 36.1253C13.4861 36.2541 12.4469 36.1738 11.4211 35.8398C3.49117 33.2612 10.8911 22.6723 16.8285 23.1444C22.0128 23.5605 22.3427 30.5837 19.4655 33.5411Z" fill="url(#paint1_linear_12_2670)"/>
<path d="M47.0726 18.6599C48.1015 18.6142 48.9573 19.4158 48.9373 20.4227C48.9339 20.5628 48.9339 20.7127 48.9339 20.8691V25.4081C48.9339 26.7831 48.2047 27.979 46.7496 28.9956C45.2446 30.0579 43.3999 30.5923 41.2156 30.5923C38.1856 30.5923 35.7649 29.6603 33.9602 27.7965C32.2154 26.0207 31.343 23.7561 31.343 21.0059C31.343 18.0799 32.2321 15.6393 34.0068 13.6875C35.9913 11.4913 38.725 10.3932 42.2046 10.3932C44.3189 10.3932 46.0304 10.7582 47.3457 11.4848C47.5788 11.6119 47.7153 11.8562 47.7019 12.1169L47.5688 14.5379C47.5355 15.1375 46.8462 15.4796 46.3368 15.144C46.0105 14.9289 45.6475 14.7237 45.3012 14.5966C44.3223 14.2349 43.3001 14.0557 42.2279 14.0557C41.1557 14.0557 40.2167 14.2219 39.4143 14.5542C38.6118 14.8866 37.9292 15.3591 37.3731 15.9749C36.1978 17.2327 35.6084 18.8977 35.6084 20.9668C35.6084 22.772 36.1278 24.222 37.1634 25.3136C38.1989 26.3954 39.5375 26.9395 41.1724 26.9395C42.9771 26.9395 44.1924 26.4801 44.8217 25.5645C45.0215 25.2712 45.1214 24.9389 45.1214 24.5707V22.8176C45.1214 22.4429 44.8117 22.1399 44.4288 22.1399H43.1935C42.764 22.1399 42.3744 22.1334 42.0647 22.1301C41.6618 22.1236 41.3422 21.801 41.3422 21.41V19.0802C41.3322 18.8228 41.5519 18.611 41.815 18.6305C42.3711 18.6696 43.34 18.6859 44.7218 18.6859H46.4866C46.6664 18.6729 46.8662 18.6696 47.0726 18.6599Z" fill="url(#paint2_linear_12_2670)"/>
<path d="M63.3817 29.6147C63.2518 29.4452 63.0154 29.3996 62.8223 29.4941C61.5437 30.1262 60.3783 30.4423 59.3294 30.4423C58.184 30.4423 57.2017 30.338 56.3826 30.1263C55.5635 29.9177 54.8709 29.6082 54.3049 29.1976C53.1494 28.37 52.5701 27.1676 52.5701 25.597C52.5701 24.1926 53.2793 23.0196 54.6944 22.0844C56.2294 21.0711 58.3138 20.5627 60.9476 20.5627L61.547 20.5758C61.6669 20.5855 61.8001 20.5921 61.9499 20.5986C62.0997 20.6051 62.2329 20.6149 62.3528 20.6344C62.2729 19.0736 61.5836 18.1613 60.2884 17.8973C59.8588 17.8094 59.4027 17.767 58.9198 17.767C58.437 17.767 57.9609 17.8094 57.4981 17.8908C57.0352 17.9723 56.5824 18.0831 56.1429 18.2199C55.6367 18.3763 55.0807 18.6468 54.6645 18.8651C54.3515 19.0313 53.9652 18.839 53.9153 18.4936L53.6123 16.304C53.5856 16.1182 53.6822 15.9358 53.8553 15.8543C55.5435 15.0397 57.3782 14.6356 59.3594 14.6356C62.6092 14.6356 64.6903 15.7826 65.5959 18.0765C65.8856 18.8097 66.0288 19.6341 66.0288 20.5497V25.8479C66.0288 26.7635 66.2952 27.4446 66.8313 27.8877C67.0344 28.0539 67.0344 28.3602 66.8379 28.5329L64.7901 30.3706C64.637 30.5075 64.4072 30.5238 64.2374 30.4097C63.9111 30.1979 63.6247 29.9307 63.3817 29.6147ZM62.3661 23.6517C62.3661 23.4269 62.1896 23.2347 61.9599 23.2151C61.8167 23.2021 61.6735 23.1956 61.527 23.1956H60.9277C58.7234 23.1956 57.3216 23.6745 56.7256 24.6293C56.5458 24.9127 56.4559 25.2093 56.4559 25.5221C56.4559 25.8349 56.5125 26.1086 56.629 26.3497C56.7422 26.5876 56.9353 26.7864 57.205 26.9428C57.7245 27.236 58.4936 27.3826 59.5159 27.3826C60.5381 27.3826 61.4937 27.1448 62.3794 26.6658C62.3694 26.5583 62.3661 26.4475 62.3661 26.3302V23.6517Z" fill="url(#paint3_linear_12_2670)"/>
<path d="M124.649 29.6147C124.519 29.4452 124.282 29.3996 124.089 29.4941C122.811 30.1262 121.645 30.4423 120.596 30.4423C119.451 30.4423 118.469 30.338 117.649 30.1263C116.83 29.9177 116.138 29.6082 115.572 29.1976C114.416 28.37 113.837 27.1676 113.837 25.597C113.837 24.1926 114.546 23.0196 115.961 22.0844C117.496 21.0711 119.581 20.5627 122.214 20.5627L122.814 20.5758C122.934 20.5855 123.067 20.5921 123.217 20.5986C123.367 20.6051 123.5 20.6149 123.62 20.6344C123.54 19.0736 122.85 18.1613 121.555 17.8973C121.126 17.8094 120.669 17.767 120.187 17.767C119.704 17.767 119.228 17.8094 118.765 17.8908C118.302 17.9723 117.849 18.0831 117.41 18.2199C116.904 18.3763 116.348 18.6468 115.931 18.8651C115.618 19.0313 115.232 18.839 115.182 18.4936L114.879 16.304C114.852 16.1182 114.949 15.9358 115.122 15.8543C116.81 15.0397 118.645 14.6356 120.626 14.6356C123.876 14.6356 125.957 15.7826 126.863 18.0765C127.152 18.8097 127.296 19.6341 127.296 20.5497V25.8479C127.296 26.7635 127.562 27.4446 128.098 27.8877C128.301 28.0539 128.301 28.3602 128.105 28.5329L126.057 30.3706C125.904 30.5075 125.674 30.5238 125.504 30.4097C125.178 30.1979 124.892 29.9307 124.649 29.6147ZM123.633 23.6517C123.633 23.4269 123.456 23.2347 123.227 23.2151C123.084 23.2021 122.94 23.1956 122.794 23.1956H122.195C119.99 23.1956 118.588 23.6745 117.992 24.6293C117.813 24.9127 117.723 25.2093 117.723 25.5221C117.723 25.8349 117.779 26.1086 117.896 26.3497C118.009 26.5876 118.202 26.7864 118.472 26.9428C118.991 27.236 119.76 27.3826 120.783 27.3826C121.805 27.3826 122.761 27.1448 123.646 26.6658C123.636 26.5583 123.633 26.4475 123.633 26.3302V23.6517Z" fill="url(#paint4_linear_12_2670)"/>
<path d="M74.4362 14.8018C74.4362 15.1146 74.7625 15.3199 75.0555 15.1994C75.9745 14.8214 76.9102 14.6356 77.8591 14.6356C79.0245 14.6356 80.0301 14.8149 80.8725 15.17C81.715 15.5252 82.4542 16.0368 83.0935 16.6982C84.4786 18.171 85.1712 20.0349 85.1712 22.2897C85.1712 24.7596 84.4187 26.7505 82.9137 28.2624C81.4686 29.7157 79.6672 30.4423 77.5129 30.4423C75.6182 30.4423 74.0566 29.9601 72.8313 28.9923C71.4561 27.9007 70.7668 26.3921 70.7668 24.4696V8.87798C70.7668 8.63686 70.9666 8.44135 71.213 8.44135H73.9867C74.2331 8.44135 74.4329 8.63686 74.4329 8.87798V14.8018H74.4362ZM74.4362 24.4272C74.4362 26.1444 75.5283 27.0047 77.7126 27.0047C78.7781 27.0047 79.6772 26.5452 80.4064 25.6296C81.1456 24.6912 81.5118 23.5279 81.5118 22.13C81.5118 20.7257 81.1223 19.6667 80.3464 18.9531C79.6472 18.3177 78.7116 18.0016 77.5328 18.0016C76.8236 18.0016 76.0411 18.2362 75.1854 18.7054C74.9856 18.813 74.7958 18.9303 74.616 19.0573C74.5028 19.1388 74.4362 19.2691 74.4362 19.4093V24.4272Z" fill="url(#paint5_linear_12_2670)"/>
<path d="M91.9071 28.585C91.9071 29.0836 91.9138 29.4778 91.9271 29.7678C91.9404 30.0155 91.7373 30.224 91.4809 30.224H88.6107C88.3643 30.224 88.1646 30.0285 88.1646 29.7874V15.3623C88.1646 15.1212 88.3643 14.9257 88.6107 14.9257H91.461C91.7074 14.9257 91.9071 15.1212 91.9071 15.3623V28.585Z" fill="url(#paint6_linear_12_2670)"/>
<path d="M100.059 28.3504C100.059 28.9174 100.175 30.2468 99.6691 30.224H96.8688C96.6224 30.224 96.4226 30.0285 96.4226 29.7874V15.3623C96.4226 15.1211 96.6224 14.9256 96.8688 14.9256H99.6125C99.8589 14.9256 100.059 15.1211 100.059 15.3623C100.059 15.7077 100.452 15.9195 100.741 15.7305C101.857 15.0006 103.035 14.6356 104.274 14.6356C105.909 14.6356 107.214 15.1798 108.193 16.2681C109.169 17.3564 109.658 18.7869 109.658 20.5627V26.3888C109.748 28.5752 109.658 29.5951 109.658 29.921C109.658 30.3641 108.743 30.237 108.356 30.224H107.311C107.091 30.224 106.818 30.2305 106.492 30.2435C106.239 30.2533 106.022 30.0578 106.022 29.8102V22.2897C106.022 19.4321 105.133 18.0016 103.358 18.0016C103.265 18.0016 103.172 18.0049 103.079 18.0114C101.347 18.1385 100.052 19.6341 100.052 21.3317V28.3504H100.059Z" fill="url(#paint7_linear_12_2670)"/>
<path d="M129.433 32.4919C130.908 32.4919 131.648 31.4199 131.648 29.2726V15.3623C131.648 15.1212 131.847 14.9257 132.094 14.9257H134.838C135.084 14.9257 135.284 15.1212 135.284 15.3623V28.2168C135.284 32.3159 134.092 34.7402 131.708 35.4929C131.012 35.7112 130.233 35.8318 129.37 35.8546C129.184 35.8611 129.014 35.7471 128.947 35.5776L127.998 33.1338C127.842 32.7298 128.205 32.3094 128.634 32.4072C128.891 32.4626 129.157 32.4919 129.433 32.4919Z" fill="url(#paint8_linear_12_2670)"/>
<path d="M143.585 25.9945C143.585 27.7541 143.611 29.0086 143.661 29.7613C143.678 30.0122 143.475 30.2273 143.219 30.2273H140.248C140.002 30.2273 139.802 30.0317 139.802 29.7906V15.3623C139.802 15.1211 140.002 14.9256 140.248 14.9256H143.142C143.388 14.9256 143.588 15.1211 143.588 15.3623V15.3818C143.588 15.7272 143.981 15.9423 144.274 15.7533C145.423 15.0071 146.595 14.6356 147.79 14.6356C149.292 14.6356 150.431 15.1993 151.203 16.3268C151.36 16.5516 151.683 16.5874 151.882 16.4017C152.475 15.8478 152.981 15.4665 153.398 15.2678C154.243 14.8474 155.096 14.6389 155.948 14.6389C156.8 14.6389 157.526 14.779 158.126 15.0625C158.725 15.346 159.218 15.7468 159.607 16.2616C160.397 17.3076 160.789 18.7413 160.789 20.566V26.3921C160.789 28.0408 160.863 29.0281 160.863 29.3638C160.863 30.2501 160.776 30.2501 159.488 30.2273H158.365C158.109 30.2273 157.809 30.2338 157.47 30.2501C157.217 30.2598 157.004 30.0643 157.004 29.8134V22.3516C157.004 20.0675 156.644 18.7119 155.928 18.2818C155.688 18.145 155.405 18.0765 155.082 18.0765C154.759 18.0765 154.473 18.1124 154.223 18.1873C153.974 18.259 153.74 18.3796 153.521 18.5458C153.151 18.8097 152.732 19.3278 152.265 20.0968C152.275 20.175 152.279 20.2532 152.279 20.3314C152.279 20.4096 152.279 21.6967 152.279 24.1959C152.279 26.4507 152.329 28.3048 152.425 29.7646C152.442 30.0155 152.239 30.2273 151.982 30.2273H150.298C149.871 30.2273 149.462 30.2338 149.066 30.2501C148.812 30.2598 148.603 30.0643 148.603 29.8167V22.3386C148.603 20.7485 148.506 19.7123 148.31 19.2366C148.117 18.7576 147.907 18.4447 147.69 18.2981C147.471 18.1515 147.201 18.0798 146.881 18.0798C145.606 18.0798 144.537 18.6598 143.675 19.8231C143.618 19.898 143.588 19.9892 143.588 20.0837V25.9945H143.585Z" fill="url(#paint9_linear_12_2670)"/>
<defs>
<linearGradient id="paint0_linear_12_2670" x1="15.8259" y1="9.4864" x2="15.8384" y2="5.35534" gradientUnits="userSpaceOnUse">
<stop stop-color="#F6339A"/>
</linearGradient>
<linearGradient id="paint1_linear_12_2670" x1="0" y1="19.6123" x2="25.6338" y2="19.6123" gradientUnits="userSpaceOnUse">
<stop stop-color="#F6339A"/>
</linearGradient>
<linearGradient id="paint2_linear_12_2670" x1="31.343" y1="20.4927" x2="48.9376" y2="20.4927" gradientUnits="userSpaceOnUse">
<stop stop-color="#F6339A"/>
</linearGradient>
<linearGradient id="paint3_linear_12_2670" x1="52.5701" y1="22.5605" x2="66.9844" y2="22.5605" gradientUnits="userSpaceOnUse">
<stop stop-color="#F6339A"/>
</linearGradient>
<linearGradient id="paint4_linear_12_2670" x1="113.837" y1="22.5605" x2="128.251" y2="22.5605" gradientUnits="userSpaceOnUse">
<stop stop-color="#F6339A"/>
</linearGradient>
<linearGradient id="paint5_linear_12_2670" x1="70.7668" y1="19.4418" x2="85.1712" y2="19.4418" gradientUnits="userSpaceOnUse">
<stop stop-color="#F6339A"/>
</linearGradient>
<linearGradient id="paint6_linear_12_2670" x1="88.1646" y1="22.5748" x2="91.9277" y2="22.5748" gradientUnits="userSpaceOnUse">
<stop stop-color="#F6339A"/>
</linearGradient>
<linearGradient id="paint7_linear_12_2670" x1="96.4226" y1="22.4432" x2="109.698" y2="22.4432" gradientUnits="userSpaceOnUse">
<stop stop-color="#F6339A"/>
</linearGradient>
<linearGradient id="paint8_linear_12_2670" x1="127.961" y1="25.3903" x2="135.284" y2="25.3903" gradientUnits="userSpaceOnUse">
<stop stop-color="#F6339A"/>
</linearGradient>
<linearGradient id="paint9_linear_12_2670" x1="139.802" y1="22.443" x2="160.863" y2="22.443" gradientUnits="userSpaceOnUse">
<stop stop-color="#F6339A"/>
</linearGradient>
</defs>
</svg>
